# xmcd
#
# Track frame offsets: 
#        150
#        18757
#        42652
#        56850
#        76565
#        96905
#        117610
#        149635
#        180705
#        194950
#        235280
#
# Disc length: 3399 seconds
#
# Revision: 2
# Processed by: cddbd v1.5.2PL0 Copyright (c) Steve Scherf et al.
# Submitted via: ExactAudioCopyFreeDBPlugin 1.0
#
DISCID=a30d450b
DTITLE=Various Artist - A Tasty Sound Collection - Whisky and Blues
DYEAR=2009
DGENRE=Blues
TTITLE0=David Johansen and The Harry Smiths - Somebody Buy Me A Drink
TTITLE1=Kenny Neal - Whisky Tears
TTITLE2=Lee Rocker - Crazy When She Drinks
TTITLE3=Ana Popovic - Love Fever
TTITLE4=Marc Reece - Little Guy
TTITLE5=Cadillac Blues Band - Miss You
TTITLE6=Guitar Crusher - Message To Man
TTITLE7=Vivino Brothers - Soul Revival
TTITLE8=Stephen Simmons - Time To Pay
TTITLE9=Blues Company - Black Nite
TTITLE10=Miller Anderson - By The Light
EXTD=
EXTT0=
EXTT1=
EXTT2=
EXTT3=
EXTT4=
EXTT5=
EXTT6=
EXTT7=
EXTT8=
EXTT9=
EXTT10=
PLAYORDER=
